<svg version="1.1" id="Layer_1" xmlns="http://www.w3.org/2000/svg" x="0" y="0" viewBox="0 0 2000 1606.4" style="enable-background:new 0 0 2000 1606.4" xml:space="preserve"><style>.st1{fill:#f01919}.st2{fill:#fff}.st3{fill:#fee25b}.st4{fill:#fdb820}.st11{fill:#010100}</style><g id="XMLID_1_" transform="translate(289.103 249.236) scale(.1637)"><g id="XMLID_46_"><path id="XMLID_86_" d="M10451.4 263.3v16.8c-10.5 76.7-43.4 146.2-68.1 218.4-37.8 111.4-77 222.5-115.6 333.9-102.8 297.7-205.7 595.4-310 892.7-12 33.7-6.7 55 18.3 81.2 173.9 182.1 278.2 399 309.3 648.8 32.5 261.8 1.1 516.4-95.7 762.1-40 101.3-93.5 195.2-157.8 283.1-159.3 216.9-317.9 434.5-474.9 653.3-138.7 193.7-322.4 330.6-540.4 423.3-147.3 62.8-301.8 98-461.5 109.9-206.4 15-410.6 1.1-612.6-45.2-77.4-18-153.7-39.6-229.2-64.7-18-6-36.3-8.6-55-8.6h-583.4c-32.9 0-34.4 1.9-31.8 35.5 15.3 175.8 3 348.9-50.5 517.9-21.3 66.9-49.7 130.9-82.3 193-15 28.8-14.6 29.5 13.1 44.9 52.4 29.5 79.7 75.2 85.3 133.9 18 183.2-.7 363.9-48.2 541.5-64.7 240.8-186.6 448-374 613.3-155.2 136.5-336.9 224-535.9 276.7-6.4 1.5-12.7 3.7-19.1 4.9-19.4 3.4-23.6 13.5-18 32.2 19.1 62.5 37.4 125.3 56.1 188.1 6.7 22.4 13.5 44.9 19.1 67.3 8.2 32.9 3 42.6-29.5 50.5-83.8 19.4-166.8 41.1-250.6 61.3-143.6 34.4-286.8 69.9-430.4 104.7-98 23.6-195.2 51.6-294.3 70.3-47.1 9-74.8 41.1-102.5 73.3-53.1 61.7-112.6 117.4-168.3 176.1-71.8 75.9-144.4 151.5-217.6 226.2-92 94.2-181 191.5-274.1 284.6-9.3 9.3-18.7 18.3-29.2 26.2h-5.6c-34.4-19.1-58-49.7-83.8-77.4-15.3-16.5-29.9-33.3-45.6-49.4-140.2-139.9-275.6-284.6-413.6-426.7-61.7-63.6-127.5-123.8-183.6-192.6-14.2-17.2-32.2-27.7-53.9-32.9-240.8-58-481.7-116.3-722.5-173.9-91.6-22.1-183.6-43.4-275.2-66.9-33.7-8.6-35.5-12.7-25.4-47.1 24.7-84.1 49.4-168.7 74-252.8 9.3-32.2 8.2-32.9-24.7-41.5-188.5-50.1-362.4-129.4-514.9-252.1-150.7-121.4-261.4-273.3-340.3-449.4-67.7-151.1-102.1-310.4-117.4-474.2-7.9-82.6-8.6-166-.4-248.7 6.4-64.7 34.8-116.3 92.7-147.7 22.1-12 16.8-25.1 7.9-41.1-67.7-121.5-107.3-252.4-127.5-389.7-24.7-165.3-15.3-330.2 19.4-492.9 12.7-59.8 7.9-119.3 4.5-178.4-3-53.1-4.1-106.2-7.5-159.3-3.4-50.1-6.4-100.6-7.5-151.8-62.1 120.8-139.9 230-236 325.7-153 152.2-333.2 261-536.3 332.8-153.3 54.2-311.5 84.9-473.8 96.5-302.2 21.7-596.5-16.5-884.8-108.4-150.7-48.2-295.4-110.7-439-177.6-52-24.3-88.3-58.3-122.3-102.1-146.6-189.2-294.3-377.3-441.3-566.2-7.5-9.7-14.6-19.4-22.4-28.8-15-18-18.7-36.6-14.2-59.8 27.3-144 54.2-288.3 81.1-432.7 57.2-307 114.1-613.7 172.4-920.3 4.9-26.2-4.9-45.2-16.8-65.8-75.9-129.8-149.2-261.4-227-390-46-76.3-77.4-157.4-99.1-243.1-24.3-95.4-41.9-191.5-42.3-290.6-2.6-72.2-1.9-144 0-216.2 4.5-162.3 42.6-316.7 111.8-462.6C-1494 308.2-1238.9 91.3-902.4-33.3c157.1-58.3 320.5-87.9 487.3-98.4 53.9-3.4 107.7-10.1 161.9-10.8 19.1-.4 28.8-9 32.9-27.3 6-26.6 11.2-53.1 18-79.3 9.3-35.2 18.3-41.5 53.9-35.9 117.4 18.3 234.5 36.6 351.9 54.6 231.1 35.5 461.8 72.2 693 107 30.7 4.5 30.7 4.5 27.7-25.1-5.6-53.1-13.1-105.8-18-158.9-1.9-20.6-12.7-36.6-25.1-52.4-39.3-49.7-77.8-100.6-117.4-150.3-15.7-19.8-21.7-40.8-19.1-65.1 14.2-127.1 26.9-254.7 40-381.8 10.8-105.1 22.4-209.8 32.5-314.9 4.5-48.6 10.1-55.3 58.3-61.3 276.4-33.7 553.1-66.6 829.5-100.6 146.6-18 280.5 12 401.3 97.6 13.8 9.7 26.9 20.2 39.3 31.8 13.8 12.7 20.2 11.6 25.1-7.9 13.1-52.7 27.3-105.1 41.5-157.1 10.5-38.1 13.5-40 52-37.4 47.5 3.4 95.4 3.4 142.9 5.2 65.4 2.2 130.5 5.6 196 8.2 108.1 4.5 216.5 7.9 324.6 14.2 64.3 4.1 129 2.6 192.6 13.5 128.3 22.1 243.1 72.2 340.7 159.7 19.4 17.2 22.1 16.5 26.9-8.6 6.4-34 11.2-68.4 17.6-102.5 6-33.7 16.5-41.9 50.9-43.8 140.6-7.5 281.2-18.3 421.8-26.9 104.3-6.4 208.7-12.3 313-19.4 114.4-7.9 229.2-13.1 344-15.3 11.2.7 22.8-1.5 34 1.5 10.8 7.5 13.5 19.8 17.6 31 15.3 45.2 30.3 90.5 45.6 135.7 10.8 31.8 14.6 35.5 48.6 32.9 53.9-4.1 108.1-8.6 161.9-13.1 84.5-7.1 169.4-12.3 253.9-20.2 40-3.7 80.4-4.1 120-10.1 40.4-6 71.4 2.2 88.6 44.1 6.7 16.8 16.1 32.9 29.2 53.5 6.7-27.7 12.3-50.1 16.5-72.9 4.5-24.7 17.6-35.5 43.4-37.8 146.2-11.6 292.4-22.4 438.3-34 77.4-6 154.4-12 231.9-18.3 22.4-1.9 37.4 4.5 49.7 22.8 14.6 21.3 26.6 44.5 47.1 66.6 9-20.6 11.2-40 15.7-58.7 7.9-32.2 18.7-42.6 52-44.5 130.5-7.9 260.7-19.8 391.2-29.5 131.3-9.7 262.5-19.8 393.8-31.8 21.3-1.9 43-1.1 64.3-3.7 19.1-2.2 27.7 7.9 26.6 26.6-1.1 15-4.1 29.5-6.7 44.5-3.4 17.6 3 26.2 21.7 26.9 98 3.4 195.6 11.6 293.6 17.6 80 4.9 160.4 7.9 240.5 16.5 27.7 3 33.3 9.3 31.8 38.1-7.1 124.9-18 249.4-26.9 374.3-6.4 86.8-12.7 173.1-18.7 259.9-7.9 111.8-15.7 223.6-25.1 335.1-3 35.9.4 39.6 36.6 41.5 129.8 6 259.2 12 388.5 21.3 19.4 1.5 39.3 0 58.7 1.1 29.2 1.9 37 11.2 28.8 40-18.3 66.6-38.5 132.8-58.3 198.9-19.1 62.5-37.8 125.3-56.5 188.1-2.6 8.6-6.4 17.2-4.1 26.6 11.2 3 19.4-3 27.7-6.7 163-73.3 333.9-110.3 512.3-123 126.8-9 251.7 4.5 377.7 9.3 23.2 1.1 34.4-5.6 41.5-26.6 7.5-22.1 15.7-44.1 24.7-65.4 12.3-29.5 19.1-32.9 49.4-25.1 150.3 38.1 300.3 78.2 450.3 117.4 179.9 47.1 359.8 94.2 539.6 141.4 90.5 23.6 181 47.1 271.1 71.1 16.4 4.2 36.9 4.6 48.2 22.9z"/><path id="XMLID_81_" d="M-1766 1144c6.7-7.9 4.5-17.6 5.6-26.6.7-8.2-1.1-16.8 5.2-23.9.4 7.5 1.1 15 .4 22.1-5.2 60.2-4.5 120.4 0 180.6.4 7.5-.4 14.6-.4 22.1-6.7-7.9-4.1-17.6-5.2-26.9-1.1-10.1 1.5-20.6-5.2-29.5-.4-39.4-.4-78.7-.4-117.9z" style="fill:#bbb9b8"/><path id="XMLID_79_" class="st1" d="M7681 3501.1c23.9 51.6 47.1 102.1 71.4 154.8-28.4 0-54.2.7-79.7 0-55-2.2-109.9-6-165.3-8.6-106.6-4.5-212.8-8.6-319.4-13.1-146.6-6.7-293.2-14.2-439.8-20.6-18.3-.7-23.2-9.7-28.4-23.6-102.1-263.6-204.9-527.3-307.4-790.9-3.7-9.3-5.2-19.8-15.3-30.7-2.2 36.3-4.9 69.9-6.4 103.6-6.7 150.3-12.7 300.7-19.1 451-3.4 82.3-7.5 164.2-11.2 246.4-1.1 25.8-1.5 26.6-27.3 25.4-101.7-4.5-203.4-9.7-305.2-14.2-59.8-2.6-119.7-4.9-179.1-7.9-149.6-7.9-299.2-3-448.4-3.7-200.8-.7-402-.4-602.8-.4h-16.8c-23.9-.4-23.9-.4-28-24.7-20.9-119.7-41.9-239-62.5-358.6-4.1-22.8-4.1-23.2-26.2-23.2h-740.4c-25.1 0-20.9-3-28.8 24.3-34.8 119.3-68.8 238.6-103.6 357.5-7.1 23.9-7.1 24.3-32.2 24.3H2859c-6.4 0-13.1 1.5-19.8-2.6-3.4-7.9.7-15.7 2.6-23.6 183.6-683.2 367.2-1366.1 550.8-2049.3.7-2.6 1.5-5.2 2.2-8.2 6.4-24.7 6.4-25.1-18.3-25.4-58.7-.7-117.8-1.1-176.5-1.5h-57.2c3-31.8 12-59.5 18.3-87.1 52-226.2 105.5-453.6 158.6-680.6 6.7-28.8 6.7-28.8 35.9-28.8H4937.5c26.9 0 26.9 0 33.7 25.1 95 369.9 190.3 739.3 285 1109.2 88.3 344.4 176.5 688.8 264.8 1033.3 1.9 7.9 4.9 15.7 8.6 28.8 6.4-23.2 6.4-41.5 7.1-59.8 7.1-159.7 14.6-319.4 21.7-479 4.5-97.2 8.2-194.1 12.7-291.3 4.9-109.2 10.1-218.4 15.3-327.6 1.9-41.1 3.4-82.3 5.6-123.4.7-14.6-5.6-16.8-18-17.2-44.9-1.5-89.8-3.7-134.6-5.6-2.6 0-5.6 0-8.2-.4-27.7-1.1-27.7-1.1-20.9-26.9 3.7-14.6 7.9-28.8 12-43 66.2-241.2 132.4-482.4 198.9-723.6 1.1-4.5 3-9 3.7-13.5 1.5-14.6 10.5-18 23.2-16.5 45.6 4.5 91.6 3 137.2 6.7 54.2 4.5 108.4 4.5 162.3 7.9 106.2 6.4 212.8 8.6 319.4 13.5 141 6.4 282 13.8 422.6 20.2 60.6 3 121.5 4.1 182.1 7.5 188.1 10.5 364.2 59.1 520.9 167.5 105.8 73.3 192.2 165.7 262.5 273.4 5.6 8.6 11.2 17.2 17.6 27.3 9-9.3 6.4-19.8 7.1-29.2 11.6-139.1 42.6-273 104.3-398.6 107.7-218.8 280.1-368 503-460.7 96.1-40 197.1-62.5 300.3-74.8 120.4-14.6 240.5-7.9 360.9-1.1 89.8 4.9 178 18 266.3 34.4 9.7 1.9 15.7-.4 19.1-10.5 7.5-21.3 15.3-41.9 23.2-63.2 12-32.2 12-31.8 44.1-23.6 118.2 31 236.3 62.1 354.5 93.1 148.8 38.9 297.7 78.2 446.5 117.4 22.1 5.6 22.1 6 15 27.7-113.7 338.1-227 675.8-340.7 1013.8-1.1 3.4-2.6 7.1-3.7 10.5-2.2 8.2-6.7 10.8-14.2 6-6.4-4.1-12.7-8.2-19.1-12-185.9-111.4-382.6-197.8-591.2-257.3-66.2-18.7-133.9-25.8-202.3-19.4-28 2.6-55 9-80.8 21.3-52 24.7-74.4 68.4-78.9 123-1.5 18.3 6.4 34.8 16.8 49.7 16.5 24.3 38.9 42.6 62.5 59.8 71.8 51.6 151.8 87.9 232.6 122.3 152.2 65.1 302.2 133.9 444.3 219.1 104 62.5 199.7 134.6 278.2 228.1 108.4 129.4 175.8 276.7 199.3 443.9 30.7 216.2 7.5 427.1-70.3 630.9-85.3 222.5-234.8 392.7-437.2 516.8-141 86.4-294.3 139.9-457.4 166.8-114.8 19.1-230.4 25.4-346.3 20.6-240.8-10.5-473.1-62.5-696.7-151.8-104.3-41.5-204.9-89.8-303.3-144.3-7.4-5.4-14.1-12.5-27.6-11.3z"/><path id="XMLID_78_" class="st1" d="M1011 163.8c-26.2 95.7-52 188.1-77.4 280.8-68.1 249.5-136.5 498.5-204.6 748-1.1 4.5-2.6 9-4.1 13.5-6.7 23.9-6.7 23.9-28.8 15.3-129.8-50.9-264-85.6-399.8-115.9-71.8-16.1-144.7-28.8-217.6-37.8-95.7-12-190-9.7-282.7 20.6-30.3 10.1-59.5 22.4-84.1 43-36.6 31-48.6 71.8-45.2 118.2 1.9 25.8 16.8 45.2 35.2 61.7 23.9 21.3 51.2 37.4 80 51.6 75.9 37 155.9 62.1 236.7 84.5 169 47.1 336.6 98.4 497.7 168.3 103.2 44.9 201.2 98.4 288 171.3 155.6 130.5 256.9 294.7 307 490.6 37 144.4 46.4 290.9 35.2 439.4-10.1 136.5-41.1 267.4-98.7 391.5-91.2 197.1-231.9 351.2-411.7 470.8-150.3 99.8-316 163.4-492.1 200.8-170.2 36.3-342.2 47.5-515.7 39.3-231.9-11.2-456.6-59.1-675.4-135.7-92.4-32.5-183.2-69.6-272.2-110.7-23.2-10.8-22.8-10.8-18-35.9 38.5-205.7 76.7-411 115.2-616.7 24.3-129.4 48.2-258.8 72.5-388.2 3.4-18 3.7-18.3 22.1-11.6 97.2 35.5 194.5 70.7 291.7 107 105.1 38.9 209.8 77.8 319.7 101.3 94.2 20.2 189.2 34.4 286.1 30.3 49.7-1.9 98.7-8.2 144.7-28 42.3-18.3 74.8-46.4 87.5-92.4 15-54.6 7.5-103.2-37.4-142.9-32.5-28.8-69.9-49.7-109.2-67.7-86.8-40-178.8-64.3-270.7-89-172-46.7-341.8-99.8-504.9-173.9-117.8-53.5-224-123-314.5-216.2-120-124.2-196-271.9-234.8-439.4-33.3-143.2-41.9-288.3-27.3-434.5 23.6-231.9 111.4-434.2 276.4-601.3 130.5-132.8 286.8-222.9 464.1-277.5 93.9-28.8 190-47.5 287.6-57.2 83.8-8.6 167.5-13.8 251.3-19.1 56.8-3.7 114.1 4.1 170.9 3.7 29.9 0 29.9.4 36.6-27.7 5-21.6 9.9-43.6 15.1-65.3C10.7 9 11 8.2 33.8 11.6c39.6 5.6 79.3 12 118.9 18.3 91.2 14.2 182.5 28.4 273.7 43 91.2 14.2 182.5 28.8 273.7 42.6 89.4 13.8 178.8 27.7 268.1 41.5 14 1.6 26.7 4.2 42.8 6.8z"/><path id="XMLID_77_" class="st1" d="M805.7 1691.1c9.3-45.6 18.3-91.2 27.7-136.5 44.1-214.7 88.3-429.7 132.4-644.3.7-3.7 1.5-7.5 2.2-10.8 1.9-12.7 7.1-18.3 21.7-19.1 76.7-3 153-7.1 229.6-11.6 114.8-6.4 229.2-13.8 344-20.2 84.9-4.9 169.8-8.6 254.7-13.1 108.1-5.6 216.5-11.6 324.6-17.6 6.4-.4 13.1-2.2 19.4-2.2 15 .4 20.9-6 22.4-20.9 2.2-23.2 7.5-46 10.8-69.2 1.9-12.7 6.4-19.1 21.3-19.8 78.5-2.6 156.7-6.7 235.2-10.5 105.5-4.9 210.9-9.7 316.4-15 43.8-2.2 87.9-2.6 131.6-5.2 91.2-5.6 182.9-8.6 274.5-12.3 6.4-.4 13.1-.4 19.4-.4 16.8.4 18.3 1.9 14.2 17.6-8.6 34.4-18 68.4-26.9 102.8-68.8 262.9-137.6 526.5-206.4 790.2-6.7 25.1-6.7 24.7-33.3 25.8-116.7 4.9-233.4 10.5-350 15.3-65.4 2.6-130.9 4.9-196 7.5-28 1.1-56.1 3-84.1 4.5-21.7 1.1-22.1 1.5-21.3 22.1 1.9 43 4.1 86 6.4 128.6 2.6 52.4 6.4 104.3 8.6 156.7 6.4 133.5 12.3 267 19.1 400.5 7.1 149.2 15 298.8 22.1 448 7.5 152.2 15 304.4 22.8 456.2 4.5 89.8 9.7 179.1 14.6 268.5 1.5 28 3.4 26.2-23.9 27.3-157.8 7.5-315.3 15.3-473.1 23.2-92.4 4.9-184.7 10.1-277.1 15-9.3.4-18.7 0-28 .7-10.8.7-15-4.1-15.3-14.6-1.1-28-3-56.1-4.5-84.1-4.5-93.5-8.6-186.6-13.5-280.1-6.4-122.3-13.5-244.6-20.2-366.5-4.9-91.6-8.6-182.9-13.5-274.5-4.5-87.9-9.7-175.4-14.6-262.9-2.2-41.1-4.5-82.3-6.4-123-6.4-129.8-12.7-259.5-19.1-389.3-1.5-33.7-3.4-67.3-5.2-100.6-1.1-22.4-1.5-23.2-22.1-22.1-72.5 4.5-145.5 9.3-218 13.8-35.5 2.2-70.7 4.5-106.2 6.7-94.2 5.6-188.5 11.2-282.7 16.8-10.4 1.2-21.6 3.4-34.3-1.4z"/><path id="XMLID_76_" class="st2" d="M6305.2-662.7c16.8-90.9 34-181.7 50.9-272.2 19.1-103.6 38.1-207.5 56.1-311.1 2.6-16.1 10.8-19.8 24.3-20.9 28-1.9 55.7-4.1 83.8-6.4 84.9-6.4 169.4-12 254.3-18.7 63.2-4.9 126.4-10.5 189.6-15.3 7.1-.7 15-2.2 24.3 1.9-5.6 35.9-10.8 72.2-16.8 108.4-21.7 135.4-43.4 270.7-65.4 406.1-19.4 121.5-39.3 243.1-59.1 364.6-19.4 121.5-39.3 243.1-58.7 365-15 93.9-30.3 188.1-44.9 282-1.9 11.2-6.7 15.7-17.6 17.2-27.7 4.1-55.7 3.7-83.8 6.7-56.5 6-113.7 8.6-170.2 13.1-85.6 6.7-171.3 13.8-256.9 20.9-16.8 1.5-33.7.7-50.5 3-14.2 1.9-19.1-3.7-23.6-16.5-26.9-76.7-54.6-152.6-82.3-228.9-37-102.5-74-204.9-111.1-307.8-1.9-5.2-2.2-10.8-10.5-15.7-8.2 41.5-16.1 81.9-23.9 122.3-29.2 150.3-58.7 300.3-87.1 450.6-3 15.7-6.7 23.6-25.4 24.7-60.6 3.4-120.8 9.7-181.4 14.6-88.3 7.1-176.9 14.2-265.1 21.3-34.4 2.6-68.8 5.2-103.2 7.1-21.7 1.1-22.1.7-28.8-19.8L5103.3-30.4c-117.8-360.5-235.2-721-353-1081.5-1.9-6.4-4.5-12.3-4.1-20.2 40.8-8.6 83-7.9 124.2-12 92-8.6 184-15 276.4-22.1 49.4-3.7 98.7-7.9 148.1-11.6 21.3-1.5 21.7-1.5 29.9 22.4 62.1 176.9 123.8 353.8 185.9 530.3 3.7 11.2 5.6 23.6 15.7 34.4 9.7-51.2 19.1-100.6 28.4-150 27.7-147.7 55-295.4 83-442.8 4.1-21.7 4.5-21.3 26.2-22.8 90.1-7.1 180.6-14.2 270.7-21.3 48.2-3.7 96.9-7.1 145.1-11.6 13.8-1.5 15.3 7.1 18.3 15.7 21.3 59.8 42.3 119.7 63.2 179.1 43 121.2 85.6 242.3 128.6 363.5 1.5 4.5 3.7 8.6 5.6 12.7 2.2 3.3 3.4 9.3 9.7 5.5z"/><path id="XMLID_75_" class="st2" d="M5039.3 183.6c-70.7 4.5-138 8.6-204.9 13.1-94.2 6-188.1 12-282.3 18-19.8 1.1-20.2 1.1-25.1-19.1-14.6-58.7-29.5-117.4-43.4-176.5-3.4-14.2-8.6-16.8-22.8-15.7-70.7 5.6-141.7 9.3-212.4 13.8-56.8 3.7-113.7 8.2-170.5 10.5-16.1.7-18 9.7-20.6 20.9-9.7 43.8-19.1 87.5-28.4 131.3-4.1 18.3-8.2 36.3-11.6 54.6-2.2 11.6-7.1 17.2-20.2 18-67.3 3.4-134.3 7.5-201.2 12-85.6 5.2-171.3 11.2-257.3 16.5-9 .7-18.3 3.4-29.5-2.2 75.5-378.1 151.5-756.2 227.4-1135.7-46.4-3.7-90.5 7.9-138 3.7 7.9-47.5 15.3-93.9 22.8-140.6 14.2-85.6 28.4-171.3 42.6-256.9.7-4.5 1.9-9.3 2.2-13.8 1.1-15 9-19.1 23.6-20.2 101.7-5.6 203.4-11.6 304.8-18 115.6-7.1 231.1-15 346.7-22.4 58.7-3.7 117.4-7.5 176.1-11.6 24.3-1.5 24.3-1.9 32.2 21.7 28 86 56.1 172 84.5 257.7 131.6 403.1 263.6 806.3 395.3 1209.4 3.3 9.8 6.3 19.6 10 31.5z"/><path id="XMLID_74_" class="st2" d="M2245.5-874.3c14.2-54.6 26.9-104.3 40-153.7 23.6-88.3 47.1-176.5 70.7-264.8 7.1-26.2 7.1-26.9 34.8-25.8 111.8 4.9 224 10.1 335.8 15 68.1 3 136.5 4.5 204.6 7.5 47.5 2.2 95 3 142.5 9.7 176.1 24.3 302.9 118.5 384.4 274.5 49.4 94.2 62.5 196.7 56.5 301.8-3.7 66.6-14.6 131.6-37.8 194.5-38.5 105.1-105.1 188.5-197.5 251.3-20.9 14.2-20.9 14.6-9.7 38.5 69.6 150.7 139.1 301.4 208.7 452.1 3.4 7.5 6.7 15 10.8 24.3-15 0-27.7.4-40.4 0-109.9-4.9-220.3-10.1-330.2-15-49.4-2.2-99.1-5.2-148.5-5.6-17.2 0-23.9-6.7-29.5-21.7-51.6-135.7-104.4-271.5-156.7-406.9-2.2-6-4.9-11.6-11.6-16.8-1.9 33.7-4.1 67.3-5.6 101.3-4.1 104.7-7.9 209-12 313.8-.7 19.8-1.1 20.6-20.6 19.8-93.5-3.7-186.6-7.5-280.1-11.6-44.9-1.9-89.8-4.1-134.3-5.2-14.2-.4-19.1-3.7-18.3-19.1 4.9-102.8 9-205.3 13.1-308.1 5.2-130.9 10.5-261.4 16.1-392.3 4.5-109.2 9.3-218.4 14.2-327.6 0-3.7 0-7.5.4-11.2 1.9-12.7-2.6-19.1-16.5-18.7-26.5.7-52.3 0-83.3 0z"/><path id="XMLID_73_" class="st2" d="M2003.9-563.9c5.2 8.6 13.8 10.8 20.9 15.3 32.2 19.4 62.8 40 92.7 62.8 60.6 46.7 101 106.6 122.7 179.5 22.4 75.2 36.6 151.5 23.6 229.2-25.4 153-115.6 254.7-257.3 312.6-53.1 21.7-109.9 26.6-166.4 33.3-71.4 8.6-142.5 17.6-213.5 26.2-67.7 8.2-135 16.1-202.7 24.3-71.4 8.6-142.5 16.8-213.5 26.6-39.3 5.2-39.6 6.4-44.5-31.8-10.8-87.9-20.6-176.1-31-264.4-10.1-88.3-20.6-176.1-31-264-10.1-88.3-20.6-176.1-30.7-264.4-8.6-74-18-148.1-25.8-222.5-1.5-14.6-6.7-19.1-20.6-17.2-25.8 3.7-51.2 6.4-79.7 9.3 3.4-34 6-66.2 9.3-98.4 11.2-109.6 22.8-219.1 34.4-328.7 2.6-25.4 2.6-26.2 29.9-29.5 51.6-6.7 103.6-12.3 155.6-18.7 71.4-8.6 142.5-17.6 213.5-26.2 52.7-6.4 105.5-12.3 158.2-18.7 55.3-6.7 111.1-12.7 166.4-20.6 126.8-18 239 10.1 331 102.8 35.5 35.5 61.3 77.4 77.4 124.9 27.3 79.3 34 160.1 17.2 242.7-15.7 76.7-53.9 140.2-110.7 193.3-9 7.7-17.2 15.2-25.4 22.3z"/><path id="XMLID_72_" class="st2" d="M6513.9 5542.9c63.9-7.1 127.9-14.2 191.5-21.7 38.9-4.5 77.8-9.3 116.7-13.1 19.1-1.9 19.8-1.1 21.3 18.7 4.5 67.3 4.5 134.6-.4 201.6-8.2 112.9-29.5 223.6-65.8 331.3-53.9 160.1-137.6 301.8-258 420.7-53.5 52.7-111.8 98.7-177.3 138.7-12-28.4-18.3-57.2-26.6-85.6-93.1-314.5-185.9-629.4-279-943.9-4.5-15.3-4.5-28.4 0-43.4 110.7-377.3 221-755 331-1132.7 4.5-15 12-22.8 26.2-28.4 128.6-51.2 257.3-103.2 386.3-155.2 10.1 6 10.8 16.8 14.2 26.2 48.2 132.4 77.4 268.5 86 409.1 9 145.1-7.1 287.2-53.9 424.8-60.6 178.8-168.3 325.3-312.6 445.8-1.9 2.6-4.1 5.2.4 7.1z"/><path id="XMLID_71_" class="st2" d="M2063.3 5542.9c-22.1-19.8-40-35.5-57.6-52-166-155.2-267.4-345.2-303.7-569.5-20.6-128.3-18.3-256.5 1.5-384.8 14.6-93.5 37-184.7 69.6-273.4 4.1-11.2 7.1-23.2 15.3-33.7 81.2 32.5 162.3 65.1 243.5 97.6 44.9 18 89.4 36.6 135 53.9 17.2 6.4 26.6 16.1 31.8 34 65.4 223.6 131.3 447.3 197.5 670.5 45.6 154.8 91.2 309.3 137.2 463.7 4.5 14.6 6 28.4 1.5 43.4-98.4 335.4-196.7 670.5-295.1 1006-2.2 7.1-2.6 15-9.7 21.3-38.5-22.1-74.4-48.6-108.8-76.7-170.5-139.1-280.5-317.5-342.2-526.9-45.2-152.6-63.2-308.9-53.9-467.8 3-49.7-6-43.8 47.9-37 53.5 6.4 107.3 12.3 161.2 18.3 27.7 3.4 55.3 7.1 83 10.1 13.5 1.5 27 1.9 46 3z"/><path id="XMLID_70_" class="st3" d="M2417.5 6641.6c10.5-51.2 27.7-100.6 42.3-150.7 86.8-296.9 173.9-593.9 261-890.8 5.6-18.7 5.6-35.5 0-54.2-100.2-337.7-200.4-675.4-299.9-1013.4-3-10.5-13.5-20.9-4.5-33.3 44.1 11.6 80 39.6 118.5 61.7 192.2 109.6 384.4 219.1 576.3 329.1 11.2 6.4 24.3 11.2 27.7 25.8-16.8 44.5-41.1 85.6-59.8 129.4-56.8 133.9-91.6 273-102.1 417.3-9.7 135.4 10.5 268.5 47.5 399 69.2 242.3 196.3 450.3 382.2 619.7 207.2 188.5 451.4 299.9 730.4 332.1 259.5 29.9 506.3-15.7 739-133.9 109.6-55.7 209-126 299.2-210.9 227.4-214.7 360.5-477.9 408.4-785.7 4.1-25.4-.4-52.7 16.5-75.2 16.5 6.7 12 21.7 12.3 33.7 2.6 70.3-6 139.9-18.3 208.7-22.4 122.7-61 240.5-117.1 351.9-6.4 12.3-12.7 25.1-20.9 36.3-220.3 412.9-676.5 694.1-1163.4 690.7-191.8 3-375.1-35.9-550.5-112.9-132.8-58.3-252.8-136.5-360.1-234.8-98.7-90.1-181.7-193-249.4-308.1-12-20.2-22.8-19.1-40.4-9.3-95.4 53.9-189.6 109.2-284.6 163.4-119.3 68.4-237.8 137.2-357.5 205.3-9.6 6.9-19.3 16.6-32.8 9.1z"/><path id="XMLID_69_" class="st2" d="M7512.7-157.4c160.8 9 319.7 18 481.7 26.9-15.3 51.2-29.9 99.1-44.1 147-28.8 97.2-57.6 194.8-86.4 292.1-7.1 23.9-7.5 24.7-32.2 22.8-109.9-7.1-219.9-14.6-329.8-21.3-72.5-4.5-145.5-8.6-218-13.1-84.9-5.2-169.4-11.2-256.2-16.8.7-19.1 1.5-37.4 2.6-55.7 10.5-139.9 21.3-279.4 31.8-419.2 10.1-136.9 19.8-274.1 29.5-411 3.7-52.4 7.9-104.3 11.6-156.7 1.5-21.7 1.1-21.7-19.8-23.2-25.1-1.9-49.7-4.1-77-6.4 4.5-31.8 8.2-62.1 12.7-92.4 16.5-110.7 33.3-221.4 48.6-332.5 2.2-16.8 8.6-19.4 22.8-18.3 76.3 5.2 152.6 10.1 229.2 15 37.4 2.2 74.4 4.9 111.8 7.1 44.9 2.6 89.4 4.5 134.3 7.5 24.7 1.5 24.7 1.9 22.8 26.2-12.3 161.2-24.7 322.4-36.6 483.5-10.1 136.9-19.8 273.7-29.5 411-3 41.8-6.4 83.3-9.8 127.5z"/><path id="XMLID_68_" class="st4" d="M5448.5 6238.1c48.2-86.4 84.5-177.6 111.1-273 17.6-62.5 30.3-126.4 38.1-190.7 6-49.7 9.3-99.8 7.1-150.3-.4-5.6-.7-11.2-4.1-16.1-9-5.2-8.2-13.8-7.5-22.4 8.6-109.9-8.2-217.6-32.2-324.6-25.8-114.4-67.3-223.3-124.5-325.7-4.1-7.5-7.9-15-7.9-23.6 2.2-11.6 12.3-16.1 20.9-20.9 224-128.3 447.6-258 671.6-386.7 9-5.2 19.4-6.7 28.8-10.8 10.1 9.7.4 19.1-1.9 27.3-48.2 166.8-96.9 333.2-145.5 499.6-51.2 175.4-102.8 350.8-154.4 526.2-4.5 15-4.5 28.4-.4 43.4 90.1 304 179.9 608.1 270 912.1 13.1 44.9 25.8 89.8 38.5 134.3-13.1 6.4-23.6-.7-34-6.7-216.9-125.7-434.9-249.1-652.6-373.6-8.4-4.3-16.6-9.2-21.1-17.8z"/><path id="XMLID_67_" class="st3" d="M6149.6 4493.6c-24.7 21.7-55 34.4-83 50.9-107.7 63.2-215.8 124.9-323.9 187.4-81.5 46.7-163.4 93.5-244.9 139.9-21.7 12.3-43.8 24.3-65.8 36.3-15.7-3.7-20.9-18.3-27.7-29.5-118.2-193.7-277.5-345.5-474.2-457.4-159.3-90.5-331-145.1-513.8-162.7-36.3-3.4-72.5-4.1-108.8-4.9-12.7-.4-26.9.7-32.9-15.3-4.1-13.8-3-27.7-3-41.9v-717.6c0-17.6-1.5-35.9 10.1-51.2 9.7.4 13.5 9 19.1 15 246.8 255 493.3 510.5 739.7 765.9 14.2 14.6 28.8 23.9 49 28.8 292.4 69.9 584.5 140.2 876.6 210.9 60.9 14.7 122.2 30.4 183.5 45.4z"/><path id="XMLID_66_" class="st2" d="M4281.3 3427.4c.4 264.8.4 529.2.7 793.9 0 7.5-.4 15-.4 22.4-6.7 13.1-19.1 9.3-29.5 9.7-311.9 6.7-584.9 115.2-822.3 314.9-108.1 90.9-196 199.3-270 319-6 9.7-9.3 23.2-23.9 25.1-139.5-80-278.6-159.7-418.1-239.7-95-54.2-189.6-108.4-284.6-162.7-5.6-3.4-10.5-7.5-16.1-11.2 60.2-15.3 120.8-30.7 181.4-45.6 264.8-64.7 529.5-129 793.9-193.7 31.8-7.9 62.8-16.5 95-23.2 13.8-3 23.6-9.3 32.9-19.1 246.8-257.7 494-515.3 741.6-772.6 5.2-6 9.7-15 19.4-17.2z"/><path id="XMLID_65_" d="M5448.5 6238.1c44.9 20.2 86.4 47.5 129 71.4 98.7 55.7 197.1 112.6 295.8 169 81.5 46.7 163 93.5 244.6 140.2 12 6.7 23.2 15.7 37.8 17.6-.7 10.5-9.3 8.6-15.7 10.1-176.5 43.4-353.4 86.4-529.9 129.4-175.8 43-351.5 86-527.3 128.6-12.3 3-22.1 8.6-30.7 17.6-154.4 161.2-309.3 322.4-463.7 483.9-96.5 100.6-193 200.8-289.4 301.4-3 3.4-4.9 11.2-12.3 6.7-7.5-13.5-9.7-28-9.7-43.4 0-235.6 0-470.8.4-706.4 0-15.3-2.6-32.5 15.3-41.9 486.4-.2 929.9-270.2 1155.8-684.2z" style="fill:#c95e40"/><path id="XMLID_64_" class="st4" d="M4292.5 6922.8c-8.2 10.8-5.2 23.2-5.2 35.2v719.9c0 12-.4 24.3-.4 36.3-9.7-4.1-15.3-13.1-22.4-20.6-244.6-253.5-489.1-506.7-733.7-760.6-15-15.3-31-24.3-52-29.2-347-83.4-693.7-167.2-1040.4-250.9-7.1-1.9-14.6-2.6-20.9-7.1-.7-.4-1.1-1.5-1.1-1.9 0-.7 1.1-1.5 1.5-2.2 32.2-12.3 60.6-32.2 90.5-49 80.4-45.2 159.7-92 239.7-138.4 80.8-46.7 161.2-93.1 242-139.9 38.9-22.4 77.8-44.1 116.3-66.6 12-7.1 18.7-4.1 24.7 7.1 31.8 59.5 70.7 114.1 111.8 166.8 15 19.1 30.3 38.1 46.7 55.3 32.2 33.7 62.8 68.4 97.6 99.5 52.7 47.5 108.8 90.9 167.5 129.8 52.7 35.2 108.4 65.8 166.4 92 102.1 46.7 207.9 81.1 318.6 101.3 83.8 15.7 168 23.6 252.8 23.2z"/><path id="XMLID_63_" d="M6305.2-662.7c.7 3.4 1.9 7.9-1.5 9.7-3.7 2.2-5.6-2.2-7.1-4.9-1.1-3-1.1-6.7-1.9-10.1 3.8 2 7.1 3.5 10.5 5.3z" style="fill:#444646"/><path id="XMLID_62_" d="M6513.9 5542.9c-1.9 4.1-6 5.2-7.5 1.5-1.9-4.1 1.5-8.2 6.7-8.6 0 2.2.4 4.5.8 7.1z" style="fill:#868789"/><path id="XMLID_61_" d="M7583.4 3283c-11.6-10.8-14.2-21.3-18.7-30.3-78.5-168.3-157.1-336.6-235.6-505.2-10.8-23.6-10.8-23.6 12.3-38.5 163.8-105.1 289.4-243.5 369.5-421.8 46.7-104.7 74.8-214.7 87.5-328.7 3.7-35.2 7.1-70.3 10.5-105.1 8.6-.4 10.5 5.6 13.5 10.1 73.3 109.9 167.5 197.8 278.2 268.5 134.3 86 277.1 154.1 423 217.6 65.8 28.8 133.1 54.2 197.5 86 53.9 26.6 106.2 55.3 152.6 93.1 15.3 12.3 28.8 26.6 41.9 41.5 55.3 62.1 20.9 161.2-34.4 193.3-34 19.8-71.1 28-109.6 29.5-91.6 3.7-180.3-14.6-267-41.1-91.2-27.7-179.1-63.6-264-108.1-120-62.8-239.7-125.7-359.8-188.5-6.4-3.4-12-8.6-23.2-7.9-90.9 277.3-182.2 555.2-274.2 835.6z"/><path id="XMLID_60_" d="M6346.4 1850.4c3.7-114.8 6.4-198.6 9.3-282.7.7-25.1 1.1-25.8 24.7-24.3 83.8 4.9 168.3 1.9 252.1 10.1 116.3 11.2 218.4 104.7 239.7 219.1 28.4 151.8-61.3 291.3-210.9 327.2-22.8 5.6-46 8.6-69.2 7.9-76.7-2.6-153-5.6-229.6-8.6-22.4-.7-22.4-1.1-22.4-23.9.6-85.7 7-170.6 6.3-224.8z"/><path id="XMLID_59_" d="M4300.4 1566.9c66.2 280.1 132.8 559.8 198.9 839.2-10.1 7.5-19.8 4.9-28.8 4.5-127.1-1.1-254.3-2.6-381.1-4.1h-5.6c-17.2-.7-18.3-1.9-14.2-17.6 5.6-21.7 12-43 17.6-64.7 66.6-243.8 132.8-487.6 199.3-731.5 2.2-9 5.2-17.6 7.9-26.6 2.3.4 4.1.4 6 .8z"/><path id="XMLID_58_" d="M4216.3-826.1c45.2 143.2 90.1 286.1 136.5 433-75.9 9-151.1 9.3-230 17.2 28.8-152.2 58.7-300.7 87.9-449.5 1.4.1 3.3-.3 5.6-.7z" style="fill:#000100"/><path id="XMLID_57_" d="M2863.6-583.7c-19.4 0-39.3-1.1-58.7.4-16.1 1.1-18.3-6-18-19.4 2.6-65.1 4.5-130.5 6.4-195.6.4-17.6 1.5-35.5 1.1-53.1 0-11.2 2.6-18 15.7-16.5 40.8 4.5 81.9 1.9 123 5.2 70.3 5.6 124.5 63.9 128.6 135.4 3.7 69.2-44.9 129.8-114.4 144.7-13.8 3-27.7 4.1-41.5 3.4-13.8-.7-28-1.5-41.9-2.2-.3-.9-.3-1.6-.3-2.3z"/><path id="XMLID_56_" d="M1548.4-27.3c-5.6-52.4-10.8-101.7-15.7-150.7-3.4-32.5-6.7-65.1-10.1-97.2-.7-8.6-3.4-17.6 9.3-18.3 48.2-3.7 95.7-16.1 144.3-9.7 63.9 8.2 111.8 64.7 112.9 129.8 1.1 63.2-47.5 123.4-110.3 132.8-41.8 6.2-84.4 8.8-130.4 13.3z"/><path id="XMLID_55_" d="M1460.5-817.1c32.5-8.6 63.6-8.6 93.9-11.6 58-6 107 34.4 114.4 91.2 7.5 56.8-32.9 108.8-85.6 115.6-28.8 3.7-57.6 6.4-86 10.1-12 1.5-16.1-2.6-17.2-14.6-4.5-47.5-9.7-94.6-14.6-142.1-1.9-16.1-3-31.8-4.9-48.6z" style="fill:#010101"/><path id="XMLID_54_" d="M3135.1 4912.8c42.3-69.6 86.8-137.2 139.9-198.9 195.2-227.7 438.3-375.5 731.8-439.8 83-18.3 167.2-28.4 252.4-28.8 7.5 0 15-1.1 22.4-1.5 44.5 3.7 89.4 2.6 134.3 7.1 148.1 14.6 289.4 52.7 424.1 115.6 245.3 114.8 437.9 289.1 578.5 520.6l13.5 21.3c38.9 73.3 74.4 148.1 101.3 227 42.6 124.5 64.3 252.8 70.7 384.1 1.5 29.9-3 59.5-3.4 89.4-18.7 185.1-67.3 361.6-157.4 524.7-197.1 356-494.8 579.3-891.2 669.4-127.5 28.8-257.3 35.2-387.4 22.4-482.8-47.1-881.4-344-1075.9-766.6-60.6-131.6-98-269.6-115.2-413.6-20.9-177.3 8.6-347.8 64.7-515.3 25.1-75.8 59.9-147.2 96.9-217.1z"/><path id="XMLID_53_" d="M4284.3 6536.1h-434.5c-24.7 0-48.2-3-69.9-16.5-37.8-23.6-57.6-58-59.1-102.1-1.1-31.8-1.9-63.6.4-95.4 1.5-22.4-6-34.4-26.9-44.5-125.3-60.6-234.1-143.2-322.4-251.3-107.7-132-168.7-283.1-179.5-453.2-15.3-240.8 57.6-455.9 198.9-647.7 166.4-225.9 387.1-372.8 661.2-436 108.1-25.1 217.6-31.4 328.3-20.9 272.6 25.8 503 140.6 693.7 334.3 144 146.2 244.2 318.6 284.6 521.3 70.7 356-43 643.2-331.3 862.4-49 37.4-102.5 68.4-158.2 95-15.7 7.5-22.4 15.7-21.7 33.7 1.5 31.8-1.5 63.6.7 95.4 4.5 64.7-51.2 127.5-127.1 126.4-145.5-2.3-291.3-.9-437.2-.9z" style="fill:#febe22"/><path id="XMLID_52_" d="M5112.3 5738.1c-1.9 108.1-42.6 197.8-128.3 265.1-117.4 92-282.3 87.1-394.9-10.8-138.7-120.4-154.8-335.4-33.7-473.4 81.1-92.4 184.4-130.1 305.2-103.2 123.4 27.7 201.2 108.4 239 228.1 9.3 30.3 13.4 62 12.7 94.2z"/><path id="XMLID_51_" d="M3482.2 5738.1c1.9-108.1 42.6-197.8 128.6-264.8 121.9-95 289.8-86.4 403.1 18.7 142.9 132.8 141 366.1-4.1 496.3-173.9 155.9-448 74.4-514.2-153.3-9.3-31.4-13.4-64-13.4-96.9z"/><path id="XMLID_50_" class="st2" d="M3693.1 5250.5c-45.6 1.1-89.4-7.1-130.1-27.7-70.7-36.3-107-106.6-97.6-185.5 8.2-72.5 40.8-133.5 86.8-188.1 85.6-101 194.1-165.3 324.2-191.1 52-10.5 104-10.1 155.6 3.7 107.3 28.8 163.4 120.8 139.5 230-18.3 83.4-64.7 150.3-126 207.5-85.3 79.7-185.1 131.3-301.8 148.5-17 1.9-33.8 2.3-50.6 2.7z"/><path id="XMLID_49_" class="st11" d="M4346 5453.1c-.4-18.3 3.7-36.3 16.8-49.4 49.7-50.5 98.4-102.5 150.7-150 43.4-39.3 108.8-16.1 123 40.8 6.7 25.8 0 49-18 67.3-48.2 49.7-96.9 98.7-146.6 146.2-23.6 22.4-53.5 25.8-83 11.6-27.5-12.6-41.8-35.8-42.9-66.5z"/><path id="XMLID_48_" class="st11" d="M4016.2 5234.8c21.3 1.9 39.6 7.9 54.2 22.4 47.1 46.7 94.6 93.1 140.6 140.6 31.4 32.2 30.7 78.2.4 108.1-29.5 29.5-76.3 30.3-108.1-.4-47.9-46-94.6-92.7-140.6-140.6-23.6-24.3-28.8-53.9-14.2-85.3 13.5-29.5 38.5-41.9 67.7-44.8z"/><path id="XMLID_47_" class="st11" d="M4119.8 6123.7c57.6-92.4 112.9-181 170.9-274.1 54.2 93.5 105.8 182.5 158.9 274.1h-329.8z"/></g></g></svg>